<svg width="69" height="33" viewBox="0 0 69 33" fill="none" xmlns="http://www.w3.org/2000/svg">
<path d="M36.1385 8.28419C36.3706 8.28419 36.6525 8.44168 36.984 8.75666C37.3322 9.05506 37.5062 9.31202 37.5062 9.52753C37.5062 10.5388 37.4731 11.923 37.4068 13.6803C37.3902 14.1113 37.3736 14.6335 37.357 15.2469C37.3404 15.8437 37.3322 16.54 37.3322 17.3357C37.3322 19.8555 37.4814 21.7123 37.7798 22.9059C37.7632 23.3037 37.6057 23.5938 37.3073 23.7762C37.0089 23.942 36.7105 24.0249 36.4121 24.0249C35.749 24.0249 35.3097 23.7928 35.0941 23.3286C34.8952 22.8644 34.7957 22.2013 34.7957 21.3393C34.7957 18.1397 34.8289 15.1972 34.8952 12.5115C32.9888 14.6335 31.505 16.4156 30.4441 17.8579C30.4441 17.8579 30.2949 17.9574 29.9964 18.1563C29.7146 18.405 29.4825 18.5293 29.3002 18.5293C28.8692 18.5293 28.5127 18.4216 28.2309 18.206C27.9491 17.9905 27.6755 17.6755 27.4103 17.2611L26.2167 15.5702C25.3878 14.4097 24.7827 13.5311 24.4014 12.9343C24.4014 14.4594 24.476 16.5317 24.6252 19.151C24.7413 20.6596 24.7993 21.7951 24.7993 22.5577C24.7993 22.9556 24.6998 23.2954 24.5009 23.5773C24.302 23.8425 23.987 23.9751 23.556 23.9751C23.1249 23.9751 22.7685 23.8922 22.4867 23.7265C22.2214 23.5607 22.0805 23.312 22.0639 22.9805C22.0805 22.6986 22.0888 22.2345 22.0888 21.5879C22.0888 20.2948 22.0474 18.72 21.9645 16.8632L21.9147 15.5204L21.865 13.7798C21.8484 13.2658 21.8319 12.669 21.8153 11.9893C21.7987 11.2931 21.7904 10.5388 21.7904 9.72646C21.7904 8.73179 22.3292 8.23446 23.4068 8.23446C23.7383 8.23446 24.0699 8.31735 24.4014 8.48312C24.7496 8.6489 25.0065 8.88928 25.1723 9.20426C25.3049 9.78449 25.794 10.746 26.6394 12.0888C27.4849 13.4316 28.3138 14.6915 29.1261 15.8686C29.8555 14.9402 30.4523 14.2439 30.9165 13.7798C31.7123 12.9674 32.3671 12.2131 32.881 11.5169C33.4115 10.8206 33.9834 9.98342 34.5968 9.00533C34.746 8.80639 34.9615 8.64061 35.2433 8.50799C35.5252 8.35879 35.8236 8.28419 36.1385 8.28419ZM45.3426 10.2735C45.2928 11.3345 45.268 12.3541 45.268 13.3321C45.268 14.3434 45.3343 15.8271 45.4669 17.7833C45.4835 18.0817 45.5166 18.6868 45.5664 19.5986C45.6161 20.4938 45.641 21.3144 45.641 22.0604C45.8067 22.0438 45.9808 22.0189 46.1632 21.9858C46.3621 21.9526 46.5113 21.9361 46.6108 21.9361C46.9755 21.9361 47.2656 22.0272 47.4811 22.2096C47.6966 22.3919 47.8044 22.6738 47.8044 23.0551C47.8044 23.3037 47.7049 23.4944 47.506 23.627C47.307 23.7596 46.9589 23.8591 46.4616 23.9254C45.9808 23.9751 45.2762 24 44.3479 24C43.3201 24 42.5492 23.9668 42.0353 23.9005C41.5214 23.8342 41.1649 23.7099 40.966 23.5275C40.7671 23.3286 40.6676 23.0385 40.6676 22.6572C40.6676 22.3754 40.7588 22.1847 40.9411 22.0853C41.1235 21.9858 41.3805 21.9361 41.712 21.9361L42.2342 21.9609L43.0548 22.0107L42.9305 19.0764C42.831 17.4849 42.7813 16.0261 42.7813 14.6998C42.7813 13.987 42.8061 13.0089 42.8559 11.7655L42.9056 10.3979C42.342 10.431 41.9027 10.4476 41.5877 10.4476C41.223 10.4476 40.9743 10.3813 40.8417 10.2487C40.7256 10.116 40.6676 9.84251 40.6676 9.42806C40.6676 8.96388 40.9826 8.66548 41.6125 8.53286C42.2591 8.40023 43.2372 8.33392 44.5468 8.33392C45.5581 8.33392 46.3124 8.36708 46.8097 8.43339C47.3236 8.4997 47.5806 8.6489 47.5806 8.88099C47.5806 9.44464 47.4562 9.81764 47.2076 10C46.9755 10.1658 46.5196 10.2487 45.8399 10.2487L45.3426 10.2735Z" fill="black"/>
<path d="M34.5 1C43.9113 1 52.3827 2.82699 58.4639 5.73535C64.618 8.67871 68 12.55 68 16.5C68 20.45 64.618 24.3213 58.4639 27.2646C52.3827 30.173 43.9113 32 34.5 32C25.0887 32 16.6173 30.173 10.5361 27.2646C4.382 24.3213 1 20.45 1 16.5C1 12.55 4.382 8.67871 10.5361 5.73535C16.6173 2.82699 25.0887 1 34.5 1Z" stroke="black" stroke-width="2"/>
</svg>
